<svg width="500" height="156" viewBox="0 0 500 156" fill="none" xmlns="http://www.w3.org/2000/svg">
<path d="M118.066 65.6611V136H103.958V65.6611H118.066ZM201.336 79.3661C208.189 79.3661 213.698 81.4823 217.863 85.7147C222.095 89.88 224.212 95.7248 224.212 103.249V136H210.104V105.164C210.104 100.797 208.995 97.4715 206.778 95.1873C204.561 92.836 201.538 91.6603 197.709 91.6603C193.879 91.6603 190.823 92.836 188.538 95.1873C186.321 97.4715 185.213 100.797 185.213 105.164V136H171.105V105.164C171.105 100.797 169.996 97.4715 167.779 95.1873C165.562 92.836 162.539 91.6603 158.71 91.6603C154.813 91.6603 151.723 92.836 149.439 95.1873C147.222 97.4715 146.113 100.797 146.113 105.164V136H132.005V80.1723H146.113V86.924C147.927 84.5727 150.245 82.7252 153.067 81.3815C155.955 80.0379 159.113 79.3661 162.539 79.3661C166.906 79.3661 170.803 80.3066 174.229 82.1877C177.655 84.0016 180.309 86.6217 182.19 90.0479C184.004 86.8232 186.624 84.2367 190.05 82.2885C193.543 80.3402 197.306 79.3661 201.336 79.3661ZM289.497 106.877C289.497 108.892 289.363 110.706 289.094 112.319H248.281C248.617 116.349 250.028 119.507 252.514 121.791C254.999 124.075 258.056 125.217 261.684 125.217C266.924 125.217 270.653 122.967 272.87 118.466H288.086C286.474 123.84 283.384 128.274 278.815 131.768C274.247 135.194 268.637 136.907 261.986 136.907C256.612 136.907 251.775 135.731 247.475 133.38C243.243 130.961 239.917 127.569 237.499 123.202C235.147 118.835 233.972 113.797 233.972 108.086C233.972 102.309 235.147 97.2363 237.499 92.8695C239.85 88.5028 243.142 85.1437 247.374 82.7923C251.607 80.441 256.477 79.2653 261.986 79.2653C267.294 79.2653 272.03 80.4074 276.195 82.6916C280.428 84.9757 283.686 88.234 285.97 92.4665C288.321 96.6317 289.497 101.435 289.497 106.877ZM274.885 102.846C274.818 99.2182 273.508 96.3294 270.955 94.1796C268.402 91.9626 265.278 90.8541 261.583 90.8541C258.09 90.8541 255.134 91.929 252.715 94.0788C250.364 96.1614 248.919 99.0838 248.382 102.846H274.885ZM358.142 65.6611V136H344.034V106.071H313.903V136H299.795V65.6611H313.903V94.5827H344.034V65.6611H358.142ZM424.732 80.1723V136H410.523V128.946C408.709 131.364 406.324 133.279 403.368 134.69C400.479 136.034 397.322 136.705 393.895 136.705C389.529 136.705 385.666 135.798 382.307 133.985C378.947 132.103 376.294 129.383 374.346 125.822C372.464 122.194 371.524 117.895 371.524 112.923V80.1723H385.632V110.908C385.632 115.342 386.741 118.768 388.958 121.187C391.174 123.538 394.198 124.714 398.027 124.714C401.924 124.714 404.98 123.538 407.197 121.187C409.414 118.768 410.523 115.342 410.523 110.908V80.1723H424.732ZM452.76 88.3348C454.574 85.6476 457.059 83.4642 460.217 81.7846C463.441 80.1051 467.103 79.2653 471.201 79.2653C475.971 79.2653 480.27 80.441 484.1 82.7923C487.996 85.1437 491.053 88.5028 493.27 92.8695C495.554 97.1692 496.696 102.174 496.696 107.885C496.696 113.595 495.554 118.667 493.27 123.101C491.053 127.468 487.996 130.861 484.1 133.279C480.27 135.698 475.971 136.907 471.201 136.907C467.036 136.907 463.374 136.101 460.217 134.488C457.126 132.809 454.641 130.659 452.76 128.039V136H438.652V61.4287H452.76V88.3348ZM482.286 107.885C482.286 104.526 481.58 101.637 480.17 99.2182C478.826 96.7325 477.012 94.8514 474.728 93.575C472.511 92.2985 470.092 91.6603 467.472 91.6603C464.919 91.6603 462.501 92.3321 460.217 93.6757C458 94.9522 456.186 96.8333 454.775 99.319C453.431 101.805 452.76 104.727 452.76 108.086C452.76 111.445 453.431 114.368 454.775 116.853C456.186 119.339 458 121.254 460.217 122.597C462.501 123.874 464.919 124.512 467.472 124.512C470.092 124.512 472.511 123.84 474.728 122.497C477.012 121.153 478.826 119.238 480.17 116.753C481.58 114.267 482.286 111.311 482.286 107.885Z" fill="white"/>
<mask id="mask0_565_7178" style="mask-type:alpha" maskUnits="userSpaceOnUse" x="0" y="0" width="164" height="148">
<path d="M164 148H0V0H164V148ZM99 55V101H122V55H99Z" fill="#D9D9D9"/>
</mask>
<g mask="url(#mask0_565_7178)">
<path fill-rule="evenodd" clip-rule="evenodd" d="M117.988 10.8247C112.248 11.0931 107.033 12.8598 102.47 16.0825C100.828 17.2417 68.0435 45.9226 66.8514 47.2423C65.9112 48.2829 64.2898 50.354 64.3559 50.4297C64.3773 50.454 64.5515 50.4401 64.7431 50.3987C65.4449 50.2469 67.6041 49.9896 68.8475 49.9093C70.6641 49.7921 74.5302 50.0532 76.3846 50.4184C77.1445 50.568 78.1842 50.8057 78.6949 50.9466L79.6234 51.2028L94.1262 38.5418C102.103 31.5782 108.942 25.6688 109.325 25.4099C116.766 20.372 126.647 21.8128 132.228 28.7495C134.137 31.1219 135.352 33.9399 135.842 37.1306C135.976 38.0039 135.976 38.4261 135.841 40.4698C135.705 42.5267 135.651 42.9308 135.395 43.8147C134.655 46.3672 133.495 48.5195 131.739 50.5943C131.045 51.4144 99.484 79.1021 97.9858 80.2052C93.161 83.7573 87.0471 84.5349 81.4478 82.3084C80.0719 81.7613 78.0146 80.5095 76.882 79.5303C75.6377 78.4545 74.0271 76.557 73.2794 75.2862C72.9648 74.7514 72.4811 73.7711 72.2046 73.1077C71.5304 71.4903 71.2871 70.5465 70.9761 68.343C70.937 68.0653 70.8033 68.0507 69.3607 68.1669C67.4489 68.3211 65.4124 68.955 63.7024 69.9283C62.747 70.4721 60.044 72.6546 60.0278 72.8952C60.009 73.1753 60.5649 75.0859 61.0606 76.4457C63.3694 82.7771 67.9259 88.137 73.8315 91.468C81.567 95.8311 90.8988 96.3441 99.0716 92.8554C101.324 91.8939 103.189 90.8031 105.228 89.2546C106.395 88.3685 138.703 60.1014 139.505 59.2647C143.517 55.0803 146.116 49.9672 147.149 44.2281C147.397 42.8492 147.599 39.427 147.521 37.9075C147.34 34.3637 146.395 30.509 144.953 27.4316C143.71 24.7799 142.24 22.5493 140.33 20.4181C138.789 18.6986 137.955 17.9209 136.251 16.6157C132.908 14.0531 128.937 12.2628 124.596 11.36C123.038 11.0361 119.536 10.7524 117.988 10.8247ZM69.0412 53.233C63.435 53.5632 58.3189 55.3719 53.7449 58.6406C52.2557 59.7049 19.4873 88.4051 18.4073 89.5911C15.8601 92.3884 13.7922 95.766 12.5779 99.1126C11.5867 101.845 11.1159 104.087 10.9138 107.038C10.7581 109.309 10.7836 110.405 11.0407 112.496C12.2568 122.387 18.5523 130.926 27.6613 135.039C33.4722 137.663 40.241 138.245 46.452 136.656C49.7624 135.808 52.8291 134.401 55.7373 132.395C57.2663 131.34 90.2833 102.475 91.5291 101.104C92.4674 100.071 94.1036 97.9954 94.0383 97.9206C94.0172 97.8965 93.5507 97.9539 93.0015 98.0484C88.753 98.7787 83.7369 98.5369 79.6719 97.4061L78.7502 97.1496L64.1459 109.897C55.1051 117.788 49.2432 122.834 48.7581 123.144C46.0916 124.849 43.474 125.716 40.3861 125.918C36.3095 126.185 32.2668 124.929 28.9121 122.354C27.5133 121.28 25.6191 119.109 24.7428 117.574C23.4751 115.354 22.7491 113.103 22.4983 110.615C22.3834 109.475 22.3895 109.061 22.545 107.418C22.6733 106.061 22.8006 105.254 22.9972 104.548C23.7168 101.966 24.9316 99.7337 26.7512 97.6504C27.572 96.7107 59.5565 68.6975 60.7124 67.9061C63.053 66.3034 65.4768 65.3511 68.3123 64.9203C69.1911 64.7867 69.6203 64.7864 71.6123 64.9183C73.6284 65.0517 74.0252 65.1053 74.9321 65.3668C77.2326 66.0302 79.5065 67.1925 81.2163 68.579C82.4762 69.6006 84.2857 71.701 85.0798 73.0637C86.1913 74.9712 86.984 77.1518 87.2594 79.0596C87.4504 80.3823 87.3324 80.2502 88.3096 80.2365C90.1882 80.2102 92.5267 79.5783 94.3234 78.6114C95.353 78.0574 95.978 77.6123 97.3703 76.4416C98.3289 75.6355 98.3568 75.6006 98.3158 75.2548C98.2306 74.5385 97.6078 72.6122 96.9079 70.901C95.6399 67.8007 93.9349 65.1191 91.5633 62.4953C87.6586 58.1755 82.4687 55.1722 76.6052 53.8393C75.2017 53.5203 70.5265 53.1455 69.0412 53.233Z" fill="white"/>
</g>
</svg>
